<?xml version="1.0" encoding="UTF-8"?>
<svg id="katman_1" data-name="katman 1" xmlns="http://www.w3.org/2000/svg" version="1.1" viewBox="0 0 841.89 595.28">
  <defs>
    <style>
      .cls-1 {
        fill: #6f6f6f;
      }

      .cls-1, .cls-2 {
        stroke-width: 0px;
      }

      .cls-2 {
        fill: #0066b1;
      }
    </style>
  </defs>
  <path class="cls-1" d="M242.56,282.95c-51.41,0-93.09,41.66-93.09,93.06s41.68,93.06,93.09,93.06,93.09-41.66,93.09-93.06-41.68-93.06-93.09-93.06ZM329.6,376.01c0,48.05-38.97,87.01-87.04,87.01s-87.04-38.96-87.04-87.01,38.97-87.01,87.04-87.01,87.04,38.96,87.04,87.01Z"/>
  <path class="cls-1" d="M242.56,320.82v3.03c28.77,0,52.18,23.4,52.18,52.16h3.03c0-30.48-24.72-55.19-55.2-55.19ZM242.56,428.17c-28.77,0-52.18-23.4-52.18-52.16h-3.03c0,30.48,24.72,55.18,55.2,55.18"/>
  <path class="cls-1" d="M287.68,336.53c1.26,1.36,3.08,3.55,4.11,4.87l18.85-11.96c-.94-1.23-2.44-3.1-3.56-4.42l-11.94,7.89-.81.7.61-.89,5.27-10.52-3.73-3.72-10.52,5.27-.89.61.71-.82,7.9-11.93c-1.39-1.18-2.72-2.27-4.43-3.58l-11.97,18.83c1.52,1.17,3.51,2.88,4.79,4.04l11.27-5.84.72-.53-.53.72-5.84,11.27Z"/>
  <path class="cls-1" d="M244.91,312.67l5.15-11.53.33-1.02-.09,1.07.54,15.41c1.81.17,3.67.42,5.51.73l-.84-22.83c-2.58-.28-5.14-.49-7.7-.6l-5.07,12.59-.18.93-.18-.93-5.07-12.59c-2.56.11-5.12.31-7.7.6l-.84,22.83c1.84-.31,3.71-.56,5.51-.73l.54-15.41-.09-1.07.33,1.02,5.15,11.53h4.69Z"/>
  <path class="cls-1" d="M203.24,330.86c2.98-3.13,4.67-6.76,1.68-10.22-1.62-1.88-4.34-2.29-6.6-1.36l-.22.09.07-.2c.33-.89.55-3.74-1.88-5.7-1.18-.96-2.66-1.31-4.17-1.16-2.79.28-4.95,2.19-10.81,8.72-1.77,1.97-4.34,5.08-5.89,7.09l16.09,15.26c5.35-5.91,7.52-8.1,11.72-12.53ZM182.26,327.13c3.24-3.96,6.68-7.55,8.25-8.98.49-.45,1.03-.89,1.68-1.07,1.06-.29,2.15.46,2.39,1.54.25,1.09-.44,2.12-1.2,2.97-1.71,1.93-7.99,8.5-7.99,8.5l-3.13-2.97ZM188.55,333.1s6.12-6.47,8.12-8.54c.79-.82,1.3-1.32,1.85-1.59.71-.35,1.48-.42,2.17.04.68.45.99,1.24.82,2.01-.2.92-.96,1.81-1.58,2.48-.84.9-8.1,8.67-8.11,8.68l-3.26-3.09Z"/>
  <path class="cls-2" d="M242.56,320.83v55.18h-55.2c0-30.5,24.69-55.18,55.2-55.18Z"/>
  <path class="cls-2" d="M297.77,376.01c0,30.5-24.69,55.18-55.2,55.18v-55.18h55.2Z"/>
  <path class="cls-1" d="M506.54,390.65h-5.72v-29.27h8.52l7.46,23.37,7.4-23.37h8.51v29.27h-5.9v-21.67l-6.85,21.67h-6.38l-7.04-21.83v21.83ZM545.42,390.65h-6.06v-29.27h6.06v29.27ZM557.88,390.65h-5.82v-29.27h7.15l11.67,21.23v-21.23h5.81v29.27h-7.15l-11.65-21.12v21.12ZM589.39,390.65h-6.05v-29.27h6.05v29.27ZM632.4,401.43h-27.76c1.48-3.45,2.65-7.05,3.52-10.78h35.04l9.24-9.24h-42.84c.14-1.78.24-3.58.24-5.4s-.09-3.61-.24-5.39h53.62l9.24-9.24h-64.32c-.87-3.73-2.04-7.34-3.52-10.8h78.62l9.24-9.24h-92.77c-11.5-18.04-31.68-30.05-54.62-30.05s-43.12,12.01-54.62,30.05h-92.77l9.24,9.24h78.63c-1.48,3.45-2.66,7.06-3.53,10.8h-64.31l9.24,9.24h53.63c-.15,1.78-.24,3.58-.24,5.39s.1,3.61.24,5.4h-42.83l9.23,9.24h35.04c.87,3.73,2.05,7.34,3.53,10.78h-27.78l9.24,9.24h23.44c11.5,18.05,31.68,30.06,54.62,30.06s43.12-12.01,54.62-30.06h23.43l9.24-9.24ZM545.11,431.48c-30.6,0-55.49-24.88-55.49-55.47s24.9-55.48,55.49-55.48,55.5,24.89,55.5,55.48-24.9,55.47-55.5,55.47Z"/>
  <path class="cls-1" d="M64.14,220.91h38.28c12.22,0,19.63-2.1,25.06-6.66,5.68-4.57,8.4-11.73,8.4-20.49,0-5.8-1.6-10.74-3.83-13.95-2.22-2.96-4.57-5.06-7.29-7.04,1.36-2.22,3.21-5.18,4.94-8.15,2.59-4.69,4.2-8.76,4.2-14.56,0-7.53-3.33-14.07-8.89-17.9-4.94-3.33-11.11-4.32-20.62-4.32h-40.25v93.06ZM79.08,206.84v-26.17h24.45c5.68,0,9.14.49,11.98,2.22,3.7,2.59,5.19,6.05,5.19,10.86,0,4.32-1.11,7.53-3.83,9.75-2.72,2.34-6.67,3.33-14.2,3.33h-23.58ZM79.08,166.61v-24.68h23.95c5.43,0,9.26.25,11.73,1.73,2.84,1.6,3.95,4.2,3.95,7.9s-1.23,6.29-2.96,9.38c-1.11,1.85-2.35,3.95-3.46,5.68h-33.21Z"/>
  <path class="cls-1" d="M161.19,220.91v-70.72l21.85,52.21h13.7l21.85-52.21v70.72h14.69v-93.06h-19.76l-23.46,56.16-23.58-56.16h-20v93.06h14.69Z"/>
  <path class="cls-1" d="M278.11,220.91l15.43-58.13,15.43,58.13h19.63l18.27-93.06h-15.06l-14.32,73.68-15.93-59.61h-15.93l-15.93,59.61-14.32-73.68h-15.31l18.27,93.06h19.76Z"/>
  <path class="cls-1" d="M457.19,219.92v-48.87h-14.82v36.66c-3.33.37-9.75,1.11-15.8,1.11-10.49,0-16.54-2.59-19.88-9.26-2.72-5.43-3.58-13.45-3.58-24.31s.99-19.25,3.7-24.81c3.46-7.28,8.77-10.12,19.51-10.12,3.33,0,7.04.49,10.87,1.23,5.8,1.11,11.85,2.47,16.92,3.7v-14.56c-3.83-.99-9.14-2.22-14.82-3.33-4.57-.86-9.63-1.6-14.45-1.6-17.16,0-25.06,6.42-30.25,15.18-4.94,8.27-6.67,19.38-6.67,34.56s1.85,25.18,6.05,32.46c5.06,8.76,12.47,15.06,30.38,15.06,10.74,0,23.95-1.6,32.84-3.09Z"/>
  <path class="cls-1" d="M483.06,220.91v-33.94h21.85l20,33.94h17.41l-21.36-36.16c2.35-2.47,6.17-6.79,9.14-10.37,4.82-5.92,7.78-11.72,7.78-20.12s-2.96-15.68-8.27-20.12c-5.93-5.06-12.84-6.29-24.2-6.29h-37.29v93.06h14.94ZM483.06,172.65v-30.48h20.74c7.9,0,11.85.62,14.57,2.47,3.21,2.22,4.32,5.43,4.32,9.75,0,4.94-2.1,8.52-4.81,11.97-1.61,1.97-3.7,4.44-5.43,6.29h-29.39Z"/>
  <path class="cls-1" d="M582.83,125.75c-18.27,0-26.79,5.92-32.6,15.8-4.82,8.15-6.3,20.61-6.3,33.08,0,14.44,2.22,26.54,7.04,34.31,5.68,9.13,13.71,14.07,31.86,14.07,15.8,0,24.2-4.32,30.74-13.82,5.56-7.9,8.02-20.49,8.02-34.56,0-13.33-1.98-26.54-8.02-35.18-6.42-9.26-14.82-13.7-30.74-13.7ZM582.83,140.07c8.4,0,14.94,2.1,18.89,9.01,3.58,6.05,4.69,15.55,4.69,25.55s-1.11,20.86-5.93,27.03c-4.32,5.55-10.25,7.04-17.66,7.04-8.4,0-15.43-1.36-19.51-8.39-3.21-5.8-4.2-15.8-4.2-25.67s.86-19.75,4.08-25.55c4.08-7.41,11.24-9.01,19.63-9.01Z"/>
  <path class="cls-1" d="M631.14,127.85v57.27c0,13.21,1.48,22.71,7.78,29.37,6.17,6.79,14.32,8.52,26.92,8.52,11.85,0,20.13-1.97,26.42-8.27,6.67-6.66,8.15-15.67,8.15-29.62v-57.27h-14.94v57.64c0,9.75-.62,15.55-4.69,19.38-3.46,3.09-8.77,3.83-14.94,3.83s-11.73-.74-15.06-3.95c-4.07-3.95-4.69-9.75-4.69-19.25v-57.64h-14.94Z"/>
  <path class="cls-1" d="M726.23,220.91v-33.32c9.75,0,18.03,0,23.21-.37,8.64-.49,15.68-2.35,20.87-7.65,5.43-5.68,7.53-13.7,7.53-22.59s-2.35-16.41-7.29-21.6c-5.19-5.31-11.85-7.53-22.1-7.53h-37.17v93.06h14.94ZM726.23,173.27v-31.1h20.62c5.93,0,9.51.62,12.1,3.21,2.59,2.59,3.7,6.54,3.7,11.6s-.62,8.89-3.09,11.6c-2.47,2.96-6.05,3.95-11.61,4.32-5.68.37-13.46.37-21.73.37Z"/>
</svg>